<svg xmlns="http://www.w3.org/2000/svg" width="56" height="56" viewBox="0 0 56 56">
  <defs>
    <style>
      .cls-1 {
        fill: #fb0;
      }

      .cls-2 {
        fill: none;
      }

      .cls-3 {
        fill: #fff;
      }
    </style>
  </defs>
  <g id="그룹_16293" data-name="그룹 16293" transform="translate(272 -1555)">
    <circle id="타원_456" data-name="타원 456" class="cls-1" cx="28" cy="28" r="28" transform="translate(-272 1555)"/>
    <g id="그룹_16282" data-name="그룹 16282" transform="translate(-1412.958 109.626)">
      <g id="그룹_14915" data-name="그룹 14915" transform="translate(1156.958 1461.374)">
        <rect id="사각형_1218" data-name="사각형 1218" class="cls-2" width="24" height="24"/>
      </g>
      <path id="패스_57522" data-name="패스 57522" class="cls-3" d="M1176.714,1463.554h-15.622a2.025,2.025,0,0,0-1.953,1.953v2.939a1.971,1.971,0,0,0,.976,1.65v11.033a2.1,2.1,0,0,0,1.953,1.953h13.67a2.1,2.1,0,0,0,1.953-1.953V1470.1a1.971,1.971,0,0,0,.976-1.65v-2.939A2.025,2.025,0,0,0,1176.714,1463.554Zm-4.7,13.2h-2.333v2.333a.778.778,0,0,1-1.555,0v-2.333h-2.333a.778.778,0,1,1,0-1.556h2.333v-2.334a.778.778,0,0,1,1.555,0v2.334h2.333a.778.778,0,0,1,0,1.556Zm4.7-8.321h-15.622v-2.929h15.622Z" transform="translate(-0.109 -0.109)"/>
    </g>
  </g>
</svg>
