<svg xmlns="http://www.w3.org/2000/svg" width="100" height="28.571" viewBox="0 0 100 28.571">
  <g id="그룹_16309" data-name="그룹 16309" transform="translate(-363 -322)">
    <path id="패스_177" data-name="패스 177" d="M483,323.439v5.866a11.517,11.517,0,0,1,5.757,9.964V322Z" transform="translate(-102.865)"/>
    <path id="패스_178" data-name="패스 178" d="M374.513,367.757a5.757,5.757,0,1,1-5.757,5.757,5.757,5.757,0,0,1,5.757-5.757m0-5.757a11.513,11.513,0,1,0,11.513,11.513A11.526,11.526,0,0,0,374.513,362Z" transform="translate(0 -34.455)"/>
    <path id="패스_179" data-name="패스 179" d="M663,451.964v1.549l5.756-1.439V442A11.517,11.517,0,0,1,663,451.964Z" transform="translate(-257.162 -102.942)"/>
    <path id="패스_180" data-name="패스 180" d="M554.513,367.757a5.757,5.757,0,1,1-5.756,5.757,5.757,5.757,0,0,1,5.756-5.757m0-5.757a11.513,11.513,0,1,0,11.513,11.513A11.526,11.526,0,0,0,554.513,362Z" transform="translate(-154.342 -34.455)"/>
    <path id="패스_181" data-name="패스 181" d="M843,323.439v5.866a11.517,11.517,0,0,1,5.757,9.964V322Z" transform="translate(-411.459)"/>
    <path id="패스_182" data-name="패스 182" d="M734.513,367.757a5.757,5.757,0,1,1-5.757,5.757,5.757,5.757,0,0,1,5.757-5.757m0-5.757a11.513,11.513,0,1,0,11.513,11.513A11.526,11.526,0,0,0,734.513,362Z" transform="translate(-308.684 -34.455)"/>
    <path id="패스_183" data-name="패스 183" d="M1013,451.964v1.549l5.757-1.439V442A11.517,11.517,0,0,1,1013,451.964Z" transform="translate(-555.757 -102.942)"/>
    <path id="패스_184" data-name="패스 184" d="M914.513,367.757a5.757,5.757,0,1,1-5.757,5.757,5.757,5.757,0,0,1,5.757-5.757m0-5.757a11.513,11.513,0,1,0,11.513,11.513A11.526,11.526,0,0,0,914.513,362Z" transform="translate(-463.026 -34.455)"/>
  </g>
</svg>
