<svg xmlns="http://www.w3.org/2000/svg" width="113.051" height="32.989" viewBox="0 0 113.051 32.989">
  <g id="그룹_203" data-name="그룹 203" transform="translate(0.5 0.641)">
    <path id="합치기_26" data-name="합치기 26" d="M-4230.392-6390.236a12.6,12.6,0,0,1-6.34,1.7,12.7,12.7,0,0,1-12.684-12.684,12.7,12.7,0,0,1,12.684-12.683,12.7,12.7,0,0,1,12.683,12.683v11.1l-6.342,1.585Zm-12.682-10.982a6.341,6.341,0,0,0,6.342,6.342,6.341,6.341,0,0,0,6.34-6.342,6.34,6.34,0,0,0-6.34-6.34A6.34,6.34,0,0,0-4243.074-6401.218Zm18.934,1.516a.012.012,0,0,0,0,0A.011.011,0,0,1-4224.14-6399.7Zm.012-.1v0Zm.022-.217s0-.009,0-.013S-4224.105-6400.025-4224.106-6400.02Zm.009-.1c0-.006,0-.012,0-.018S-4224.1-6400.127-4224.1-6400.122Zm.009-.113a.024.024,0,0,0,0-.006A.024.024,0,0,1-4224.088-6400.234Zm.008-.107v0Zm.007-.1c0-.007,0-.015,0-.022S-4224.073-6400.45-4224.073-6400.442Zm.006-.119v0A.006.006,0,0,0-4224.067-6400.561Zm0-.1c0-.007,0-.015,0-.022C-4224.062-6400.679-4224.062-6400.672-4224.062-6400.665Zm0-.1c0-.007,0-.016,0-.023C-4224.057-6400.782-4224.058-6400.774-4224.058-6400.767Zm0-.122h0Zm0-.1v0Zm0-.1c0-.01,0-.019,0-.028C-4224.05-6401.11-4224.05-6401.1-4224.051-6401.091Zm-53.9-.127a12.7,12.7,0,0,1,12.684-12.683,12.6,12.6,0,0,1,6.34,1.7v-6.458l6.342-1.585v19.024a12.7,12.7,0,0,1-12.683,12.684A12.7,12.7,0,0,1-4277.953-6401.218Zm6.342,0a6.341,6.341,0,0,0,6.342,6.342,6.343,6.343,0,0,0,6.342-6.342,6.341,6.341,0,0,0-6.342-6.34A6.34,6.34,0,0,0-4271.611-6401.218Zm19.024-.1c0-.01,0-.019,0-.028C-4252.588-6401.336-4252.587-6401.327-4252.587-6401.317Zm0-.1c0-.008,0-.016,0-.023C-4252.589-6401.438-4252.589-6401.43-4252.589-6401.422Zm-.005-.225c0-.007,0-.015,0-.022C-4252.595-6401.662-4252.595-6401.655-4252.594-6401.647Zm0-.1c0-.007,0-.014,0-.021S-4252.6-6401.758-4252.6-6401.751Zm-.011-.222c0-.007,0-.013,0-.02S-4252.61-6401.979-4252.609-6401.973Zm-.007-.107s0-.009,0-.014A.129.129,0,0,1-4252.616-6402.081Zm-.017-.218s0-.009,0-.014S-4252.633-6402.3-4252.633-6402.3Zm-.01-.108a.037.037,0,0,0,0-.007S-4252.643-6402.41-4252.643-6402.407Zm-.022-.216s0,0,0-.006S-4252.665-6402.625-4252.665-6402.624Zm-34.8,12.387a12.6,12.6,0,0,1-6.34,1.7,12.7,12.7,0,0,1-12.684-12.684,12.7,12.7,0,0,1,12.684-12.683,12.7,12.7,0,0,1,12.682,12.683v11.1l-6.342,1.585Zm-12.682-10.982a6.341,6.341,0,0,0,6.342,6.342,6.341,6.341,0,0,0,6.34-6.342,6.34,6.34,0,0,0-6.34-6.34A6.34,6.34,0,0,0-4300.148-6401.218Zm18.934,1.516s0,0,0,0S-4281.214-6399.7-4281.214-6399.7Zm.012-.1v0Zm.022-.217v0Zm.009-.1v0Zm.009-.113s0,0,0-.006S-4281.162-6400.236-4281.162-6400.234Zm.008-.107c0-.005,0-.011,0-.016S-4281.154-6400.347-4281.154-6400.342Zm.006-.1v0Zm.007-.119v0Zm0-.1c0-.007,0-.015,0-.022C-4281.136-6400.679-4281.136-6400.672-4281.136-6400.665Zm0-.1c0-.007,0-.016,0-.023C-4281.132-6400.782-4281.132-6400.774-4281.132-6400.767Zm0-.122h0Zm0-.1c0-.008,0-.016,0-.024C-4281.126-6401.007-4281.126-6401-4281.126-6400.991Zm0-.1c0-.01,0-.019,0-.028C-4281.125-6401.11-4281.125-6401.1-4281.125-6401.091Zm-53.9-.127a12.7,12.7,0,0,1,12.684-12.683,12.6,12.6,0,0,1,6.34,1.7v-6.458l6.342-1.585v19.024a12.7,12.7,0,0,1-12.682,12.684A12.7,12.7,0,0,1-4335.028-6401.218Zm6.342,0a6.341,6.341,0,0,0,6.342,6.342,6.342,6.342,0,0,0,6.342-6.342,6.341,6.341,0,0,0-6.342-6.34A6.34,6.34,0,0,0-4328.686-6401.218Zm19.023-.1v0Zm0-.1c0-.008,0-.016,0-.023C-4309.664-6401.438-4309.663-6401.43-4309.663-6401.422Zm-.005-.225c0-.007,0-.015,0-.022C-4309.669-6401.662-4309.669-6401.655-4309.668-6401.647Zm0-.1c0-.007,0-.014,0-.021S-4309.673-6401.758-4309.672-6401.751Zm-.011-.222v0Zm-.007-.107s0-.009,0-.014S-4309.691-6402.085-4309.69-6402.081Zm-.017-.218v0Zm-.01-.108s0,0,0-.007S-4309.717-6402.41-4309.717-6402.407Zm-.022-.216a.024.024,0,0,1,0-.006A.024.024,0,0,0-4309.739-6402.624Z" transform="translate(4335.027 6420.243)" fill="#fff" stroke="rgba(0,0,0,0)" stroke-miterlimit="10" stroke-width="1"/>
  </g>
</svg>
