<svg xmlns="http://www.w3.org/2000/svg" viewBox="0 0 56 56"><defs><style>.cls-1{fill:#ffc50d;}.cls-2{fill:#fafafa;}</style></defs><g id="레이어_2" data-name="레이어 2"><g id="레이어_1-2" data-name="레이어 1"><g id="그룹_16301" data-name="그룹 16301"><circle id="타원_459" data-name="타원 459" class="cls-1" cx="28" cy="28" r="28"/><g id="volunteer_activism-24px" data-name="volunteer activism-24px"><g id="그룹_14919" data-name="그룹 14919"><g id="그룹_14918" data-name="그룹 14918"><path id="패스_57523" data-name="패스 57523" class="cls-2" d="M19,27h0a2,2,0,0,0-2,2v7a2,2,0,0,0,2,2h0a2,2,0,0,0,2-2v-7A2,2,0,0,0,19,27Z"/><path id="패스_57524" data-name="패스 57524" class="cls-2" d="M26,21.28A3.25,3.25,0,0,1,29.18,18h.06a3.56,3.56,0,0,1,2.69,1.25A3.59,3.59,0,0,1,34.62,18a3.25,3.25,0,0,1,3.29,3.22v.07c0,2.09-2.49,4.49-5.31,7.06a1,1,0,0,1-1.34,0c-2.81-2.57-5.3-5-5.3-7.06"/><path id="패스_57525" data-name="패스 57525" class="cls-2" d="M35.9,32.93H29.1a.87.87,0,0,1-.32-.06l-1.47-.51a.49.49,0,0,1-.3-.62h0a.5.5,0,0,1,.63-.3h0l1.11.43a1.15,1.15,0,0,0,.36.07h2.62a1.18,1.18,0,0,0,1.18-1.18h0a1.19,1.19,0,0,0-.77-1.1l-6.89-2.57a1.85,1.85,0,0,0-.7-.13H23v9l6.34,1.79a2,2,0,0,0,1.25,0l7.35-2.77h0a2,2,0,0,0-2-2Z"/></g></g></g></g></g></g></svg>